G04 Layer_Color=16711935*
%FSLAX25Y25*%
%MOIN*%
G70*
G01*
G75*
%ADD40R,0.04343X0.03950*%
%ADD48C,0.04737*%
%ADD49R,0.04737X0.04737*%
%ADD50R,0.06706X0.06706*%
%ADD51C,0.06706*%
%ADD52C,0.03300*%
%ADD53C,0.03800*%
%ADD54R,0.20800X0.20800*%
%ADD55R,0.16391X0.16391*%
%ADD56R,0.06312X0.09068*%
D40*
X881000Y11244D02*
D03*
Y16756D02*
D03*
D48*
X848000Y20000D02*
D03*
Y14000D02*
D03*
X769000Y55500D02*
D03*
Y60500D02*
D03*
X774000Y55500D02*
D03*
Y60500D02*
D03*
X779000Y55500D02*
D03*
D49*
Y60500D02*
D03*
D50*
X860000Y59500D02*
D03*
D51*
X870000D02*
D03*
X880000D02*
D03*
X890000D02*
D03*
X900000D02*
D03*
D52*
X870000Y11000D02*
D03*
X854000Y45500D02*
D03*
X850000Y28500D02*
D03*
X909500Y52500D02*
D03*
X811500Y17000D02*
D03*
X810000Y34500D02*
D03*
X850000Y40000D02*
D03*
X808500Y25000D02*
D03*
X839000Y38000D02*
D03*
X842500Y32500D02*
D03*
X832500Y27500D02*
D03*
X792500Y40000D02*
D03*
X803500Y47500D02*
D03*
X804500Y34000D02*
D03*
X793000Y17500D02*
D03*
X790000Y26500D02*
D03*
X789000Y30500D02*
D03*
X787000Y34500D02*
D03*
X793500Y13000D02*
D03*
X763000Y44000D02*
D03*
X758500Y41000D02*
D03*
X758000Y28000D02*
D03*
X749000Y48000D02*
D03*
X778000Y2500D02*
D03*
X774000Y7500D02*
D03*
D53*
X868000Y18000D02*
D03*
X863227Y47550D02*
D03*
X764500Y15000D02*
D03*
X802374Y13626D02*
D03*
X897000Y11000D02*
D03*
X888000Y16500D02*
D03*
X822276Y47276D02*
D03*
X883000Y43000D02*
D03*
D54*
X770500Y30500D02*
D03*
X871484D02*
D03*
D55*
X820992D02*
D03*
D56*
X910217Y44327D02*
D03*
Y8500D02*
D03*
X892500Y44327D02*
D03*
Y8500D02*
D03*
M02*
