G04 Layer_Color=65535*
%FSLAX25Y25*%
%MOIN*%
G70*
G01*
G75*
%ADD23C,0.02000*%
%ADD24C,0.01000*%
%ADD34C,0.00984*%
%ADD35C,0.00787*%
%ADD36C,0.00100*%
D23*
X661000Y0D02*
Y65000D01*
X461000Y0D02*
Y65000D01*
X261019Y0D02*
Y65000D01*
X61000Y0D02*
Y65000D01*
X761000Y0D02*
Y65000D01*
X161000Y-500D02*
Y64500D01*
X361000Y0D02*
Y65000D01*
X561000Y0D02*
Y65000D01*
X774976Y15531D02*
X793776D01*
X774976D02*
Y42500D01*
X793776D01*
Y15531D02*
Y42500D01*
D24*
X793785Y11594D02*
G03*
X793785Y11594I-502J0D01*
G01*
X646000Y59998D02*
X649999D01*
Y58998D01*
X646000Y55000D01*
Y54000D01*
X652998Y60998D02*
Y58998D01*
X651998Y57999D01*
X656996Y60998D02*
Y58998D01*
X655997Y57999D01*
X549999Y59998D02*
X547999Y58998D01*
X546000Y56999D01*
Y55000D01*
X547000Y54000D01*
X548999D01*
X549999Y55000D01*
Y55999D01*
X548999Y56999D01*
X546000D01*
X552998Y60998D02*
Y58998D01*
X551998Y57999D01*
X556996Y60998D02*
Y58998D01*
X555997Y57999D01*
X449999Y59998D02*
X446000D01*
Y56999D01*
X447999Y57999D01*
X448999D01*
X449999Y56999D01*
Y55000D01*
X448999Y54000D01*
X447000D01*
X446000Y55000D01*
X452998Y60998D02*
Y58998D01*
X451998Y57999D01*
X456996Y60998D02*
Y58998D01*
X455997Y57999D01*
X348999Y54000D02*
Y59998D01*
X346000Y56999D01*
X349999D01*
X352998Y60998D02*
Y58998D01*
X351998Y57999D01*
X356996Y60998D02*
Y58998D01*
X355997Y57999D01*
X246000Y58998D02*
X247000Y59998D01*
X248999D01*
X249999Y58998D01*
Y57999D01*
X248999Y56999D01*
X247999D01*
X248999D01*
X249999Y55999D01*
Y55000D01*
X248999Y54000D01*
X247000D01*
X246000Y55000D01*
X252998Y60998D02*
Y58998D01*
X251998Y57999D01*
X256996Y60998D02*
Y58998D01*
X255997Y57999D01*
X149999Y54000D02*
X146000D01*
X149999Y57999D01*
Y58998D01*
X148999Y59998D01*
X147000D01*
X146000Y58998D01*
X152998Y60998D02*
Y58998D01*
X151998Y57999D01*
X156997Y60998D02*
Y58998D01*
X155997Y57999D01*
X46000Y54000D02*
X47999D01*
X47000D01*
Y59998D01*
X46000Y58998D01*
X51998Y60998D02*
Y58998D01*
X50998Y57999D01*
X55997Y60998D02*
Y58998D01*
X54997Y57999D01*
X847049Y38048D02*
X845049D01*
X846049D01*
Y33050D01*
X845049Y32050D01*
X844050D01*
X843050Y33050D01*
X849048Y32050D02*
X851047D01*
X850048D01*
Y38048D01*
X849048Y37048D01*
X847049Y32048D02*
X845049D01*
X846049D01*
Y27050D01*
X845049Y26050D01*
X844050D01*
X843050Y27050D01*
X853047Y26050D02*
X849048D01*
X853047Y30049D01*
Y31048D01*
X852047Y32048D01*
X850048D01*
X849048Y31048D01*
X842999Y54000D02*
Y57998D01*
X841999Y58998D01*
X840000D01*
X839000Y57998D01*
Y54000D01*
X840000Y53000D01*
X841999D01*
X840999Y54999D02*
X842999Y53000D01*
X841999D02*
X842999Y54000D01*
X844998Y53000D02*
X846997D01*
X845998D01*
Y58998D01*
X844998Y57998D01*
X819999Y44498D02*
X818999Y45498D01*
X817000D01*
X816000Y44498D01*
Y40500D01*
X817000Y39500D01*
X818999D01*
X819999Y40500D01*
X824997Y39500D02*
Y45498D01*
X821998Y42499D01*
X825997D01*
X809500Y64498D02*
Y59500D01*
X810500Y58500D01*
X812499D01*
X813499Y59500D01*
Y64498D01*
X819497Y58500D02*
X815498D01*
X819497Y62499D01*
Y63498D01*
X818497Y64498D01*
X816498D01*
X815498Y63498D01*
X804502Y40499D02*
X803502Y39499D01*
Y37500D01*
X804502Y36500D01*
X808500D01*
X809500Y37500D01*
Y39499D01*
X808500Y40499D01*
X804502Y42498D02*
X803502Y43498D01*
Y45497D01*
X804502Y46497D01*
X805501D01*
X806501Y45497D01*
Y44497D01*
Y45497D01*
X807501Y46497D01*
X808500D01*
X809500Y45497D01*
Y43498D01*
X808500Y42498D01*
X795002Y54499D02*
X794002Y53499D01*
Y51500D01*
X795002Y50500D01*
X799000D01*
X800000Y51500D01*
Y53499D01*
X799000Y54499D01*
X794002Y60497D02*
Y56498D01*
X797001D01*
X796001Y58497D01*
Y59497D01*
X797001Y60497D01*
X799000D01*
X800000Y59497D01*
Y57498D01*
X799000Y56498D01*
X784499Y6498D02*
X783499Y7498D01*
X781500D01*
X780500Y6498D01*
Y2500D01*
X781500Y1500D01*
X783499D01*
X784499Y2500D01*
X786498Y1500D02*
X788497D01*
X787498D01*
Y7498D01*
X786498Y6498D01*
X750000Y55000D02*
Y60998D01*
X752999D01*
X753999Y59998D01*
Y57999D01*
X752999Y56999D01*
X750000D01*
X755998Y55000D02*
X757997D01*
X756998D01*
Y60998D01*
X755998Y59998D01*
X834500Y35000D02*
X840498D01*
Y32001D01*
X839498Y31001D01*
X837499D01*
X836499Y32001D01*
Y35000D01*
Y33001D02*
X834500Y31001D01*
X839498Y29002D02*
X840498Y28002D01*
Y26003D01*
X839498Y25003D01*
X838499D01*
X837499Y26003D01*
Y27003D01*
Y26003D01*
X836499Y25003D01*
X835500D01*
X834500Y26003D01*
Y28002D01*
X835500Y29002D01*
X818498Y11500D02*
X812500D01*
Y8501D01*
X813500Y7501D01*
X817498D01*
X818498Y8501D01*
Y11500D01*
X817498Y5502D02*
X818498Y4502D01*
Y2503D01*
X817498Y1503D01*
X816499D01*
X815499Y2503D01*
Y3503D01*
Y2503D01*
X814499Y1503D01*
X813500D01*
X812500Y2503D01*
Y4502D01*
X813500Y5502D01*
X912100Y38500D02*
X906102D01*
Y41499D01*
X907102Y42499D01*
X909101D01*
X910101Y41499D01*
Y38500D01*
Y40499D02*
X912100Y42499D01*
X906102Y48497D02*
Y44498D01*
X909101D01*
X908101Y46497D01*
Y47497D01*
X909101Y48497D01*
X911100D01*
X912100Y47497D01*
Y45498D01*
X911100Y44498D01*
X826500Y35146D02*
X832498D01*
Y32147D01*
X831498Y31147D01*
X829499D01*
X828499Y32147D01*
Y35146D01*
Y33146D02*
X826500Y31147D01*
Y25149D02*
Y29148D01*
X830499Y25149D01*
X831498D01*
X832498Y26149D01*
Y28148D01*
X831498Y29148D01*
X819000Y35146D02*
X824998D01*
Y32147D01*
X823998Y31147D01*
X821999D01*
X820999Y32147D01*
Y35146D01*
Y33146D02*
X819000Y31147D01*
Y29148D02*
Y27148D01*
Y28148D01*
X824998D01*
X823998Y29148D01*
X853498Y12000D02*
X847500D01*
Y9001D01*
X848500Y8001D01*
X852498D01*
X853498Y9001D01*
Y12000D01*
X847500Y2003D02*
Y6002D01*
X851499Y2003D01*
X852498D01*
X853498Y3003D01*
Y5002D01*
X852498Y6002D01*
X845498Y12000D02*
X839500D01*
Y9001D01*
X840500Y8001D01*
X844498D01*
X845498Y9001D01*
Y12000D01*
X839500Y6002D02*
Y4003D01*
Y5002D01*
X845498D01*
X844498Y6002D01*
X774500Y51998D02*
Y47000D01*
X775500Y46000D01*
X777499D01*
X778499Y47000D01*
Y51998D01*
X780498Y46000D02*
X782497D01*
X781498D01*
Y51998D01*
X780498Y50998D01*
X844100Y58500D02*
Y64498D01*
X847099D01*
X848099Y63498D01*
Y61499D01*
X847099Y60499D01*
X844100D01*
X854097Y58500D02*
X850098D01*
X854097Y62499D01*
Y63498D01*
X853097Y64498D01*
X851098D01*
X850098Y63498D01*
X867000Y31998D02*
Y26000D01*
X869999D01*
X870999Y27000D01*
Y27999D01*
X869999Y28999D01*
X867000D01*
X869999D01*
X870999Y29999D01*
Y30998D01*
X869999Y31998D01*
X867000D01*
X872998Y26000D02*
X874997D01*
X873998D01*
Y31998D01*
X872998Y30998D01*
X806000Y26998D02*
Y22000D01*
X807000Y21000D01*
X808999D01*
X809999Y22000D01*
Y26998D01*
X815997D02*
X813997Y25998D01*
X811998Y23999D01*
Y22000D01*
X812998Y21000D01*
X814997D01*
X815997Y22000D01*
Y22999D01*
X814997Y23999D01*
X811998D01*
D34*
X847839Y39185D02*
G03*
X847839Y39185I-492J0D01*
G01*
X832216Y48315D02*
G03*
X832216Y48315I-492J0D01*
G01*
X802177Y6154D02*
G03*
X802177Y6154I-492J0D01*
G01*
D35*
X838095Y41744D02*
X841244D01*
X838095D02*
Y45287D01*
X846756Y41744D02*
X849905D01*
Y45287D01*
X826016Y49398D02*
Y61602D01*
X827984Y49398D02*
Y61602D01*
X826016D02*
X827984D01*
X826016Y49398D02*
X827984D01*
X765457Y64043D02*
X782543D01*
X765457Y51957D02*
Y64043D01*
Y51957D02*
X782543D01*
Y64043D01*
X830378Y18258D02*
Y19833D01*
X827622Y18258D02*
Y19833D01*
X837178Y18358D02*
Y19933D01*
X834422Y18358D02*
Y19933D01*
X910878Y58213D02*
Y59787D01*
X908122Y58213D02*
Y59787D01*
X804244Y3594D02*
X807394D01*
X804244D02*
Y6744D01*
Y15405D02*
X807394D01*
X804244Y12256D02*
Y15405D01*
X861874Y3378D02*
X864630D01*
X856362Y8693D02*
Y12433D01*
Y41567D02*
Y45307D01*
X861874Y50622D02*
X864630D01*
X903606Y3378D02*
X914827D01*
Y4362D01*
Y49638D02*
Y50622D01*
X903606D02*
X914827D01*
X823378Y18258D02*
Y19833D01*
X820622Y18258D02*
Y19833D01*
X905000Y54500D02*
Y64500D01*
X855000Y54500D02*
X905000D01*
X855000Y64500D02*
X905000D01*
X855000Y54500D02*
Y64500D01*
X785299Y62500D02*
X783987D01*
X784643D01*
Y58564D01*
X785299Y59220D01*
X761415Y58564D02*
X764039D01*
Y60532D01*
X762727Y59876D01*
X762072D01*
X761415Y60532D01*
Y61844D01*
X762072Y62500D01*
X763383D01*
X764039Y61844D01*
D36*
X-86200Y36000D02*
X0Y65000D01*
X915000D01*
Y0D02*
Y65000D01*
X0Y0D02*
X915000D01*
X-86200Y29000D02*
X0Y0D01*
X-86200Y29000D02*
Y36000D01*
M02*
