M48
;Layer_Color=9474304
;FILE_FORMAT=2:5
INCH,LZ
;TYPE=PLATED
T1F00S00C0.01000
T2F00S00C0.01500
T3F00S00C0.02000
T4F00S00C0.02362
T5F00S00C0.03543
%
T01
X0758Y0028
X07585Y0041
X0749Y0048
X0763Y0044
X07925Y004
X0787Y00345
X0789Y00305
X079Y00265
X0793Y00175
X07935Y0013
X08115Y0017
X08085Y0025
X081Y00345
X08045Y0034
X08035Y00475
X0839Y0038
X08425Y00325
X085Y00285
Y004
X0854Y00455
X08325Y00275
X087Y0011
X09095Y00525
X0774Y00075
X0778Y00025
T02
X07645Y0015
X0802374Y0013626
X0822276Y0047276
X0863227Y004755
X0883Y0043
X0888Y00165
X0897Y0011
X0868Y0018
T03
X-00135Y0013988
Y0026513
X-00135Y0039
X-0013499Y0051536
X0041363Y0051477
X00415Y0038987
Y00265
X00415Y0013964
X0084Y0013488
Y0026013
X0084Y00385
X0084Y0051036
X0138864Y0050977
X0139Y0038487
Y0026
X0138999Y0013464
X0184Y0013488
X0184Y0026013
X0184Y00385
X0184001Y0051036
X0238863Y0050977
X0239Y0038487
X0239Y0026
X0239Y0013464
X0284Y0013488
Y0026013
X0284Y00385
X0284Y0051036
X0338863Y0050977
X0339Y0038487
Y0026
X0339Y0013464
X0384Y0013488
X0384Y0026013
X0384Y00385
X0384Y0051036
X0438863Y0050977
X0439Y0038487
X0439Y0026
X0439Y0013464
X0484Y0013488
Y0026013
X0484Y00385
X0484Y0051036
X0538864Y0050977
X0539Y0038487
Y0026
X0539Y0013464
X0584Y0013488
Y0026013
X0584Y00385
X0584Y0051036
X0638864Y0050977
X0639Y0038487
Y0026
X0639Y0013464
T04
X0769Y00555
Y00605
X0774
Y00555
X0779
Y00605
X0848Y002
Y0014
T05
X086Y00595
X087
X088
X089
X09
M30
