G04 Layer_Color=8421504*
%FSLAX25Y25*%
%MOIN*%
G70*
G01*
G75*
%ADD11R,0.02362X0.04528*%
%ADD12R,0.03150X0.03543*%
%ADD13R,0.04331X0.02559*%
%ADD14R,0.03543X0.03150*%
%ADD15R,0.03150X0.02362*%
%ADD16R,0.03543X0.02756*%
%ADD17R,0.05709X0.02362*%
%ADD18R,0.05906X0.03150*%
%ADD19R,0.03150X0.05906*%
%ADD20C,0.06299*%
%ADD21R,0.06890X0.01772*%
D11*
X844000Y40071D02*
D03*
X840260Y48929D02*
D03*
X847740D02*
D03*
D12*
X828744Y45000D02*
D03*
X834256D02*
D03*
X781844Y11300D02*
D03*
X787356D02*
D03*
D13*
X822276Y51760D02*
D03*
Y59240D02*
D03*
X831724D02*
D03*
Y55500D02*
D03*
Y51760D02*
D03*
D14*
X814500Y50756D02*
D03*
Y45244D02*
D03*
X807500Y56256D02*
D03*
Y50744D02*
D03*
D15*
X828900Y4191D02*
D03*
Y9900D02*
D03*
X835900Y4391D02*
D03*
Y10100D02*
D03*
X822000Y4291D02*
D03*
Y10000D02*
D03*
D16*
X829000Y21998D02*
D03*
Y16093D02*
D03*
X835800Y22098D02*
D03*
Y16193D02*
D03*
X909500Y61953D02*
D03*
Y56047D02*
D03*
X822000Y21998D02*
D03*
Y16093D02*
D03*
D17*
X811626Y5760D02*
D03*
Y13240D02*
D03*
X802374Y9500D02*
D03*
D18*
X858724Y34087D02*
D03*
Y38811D02*
D03*
Y29362D02*
D03*
Y24638D02*
D03*
Y19914D02*
D03*
Y15189D02*
D03*
D19*
X872110Y5347D02*
D03*
X867386D02*
D03*
X876835D02*
D03*
X881559D02*
D03*
X886283D02*
D03*
X891008D02*
D03*
X895732D02*
D03*
X900457D02*
D03*
Y48654D02*
D03*
X895732D02*
D03*
X891008D02*
D03*
X886283D02*
D03*
X881559D02*
D03*
X876835D02*
D03*
X867386D02*
D03*
X872110D02*
D03*
D20*
X857543Y49638D02*
D03*
Y4362D02*
D03*
D21*
X770154Y17500D02*
D03*
Y20059D02*
D03*
Y22618D02*
D03*
Y25177D02*
D03*
Y27736D02*
D03*
Y30295D02*
D03*
Y32854D02*
D03*
Y35413D02*
D03*
Y37973D02*
D03*
Y40532D02*
D03*
X798500D02*
D03*
Y37973D02*
D03*
Y35413D02*
D03*
Y32854D02*
D03*
Y30295D02*
D03*
Y27736D02*
D03*
Y25177D02*
D03*
Y22618D02*
D03*
Y20059D02*
D03*
Y17500D02*
D03*
M02*
