G04 Layer_Physical_Order=2*
G04 Layer_Color=16711680*
%FSLAX25Y25*%
%MOIN*%
G70*
G01*
G75*
%ADD10O,0.65000X0.10000*%
%ADD14R,0.03543X0.03150*%
%ADD22C,0.00800*%
%ADD23C,0.02000*%
%ADD25C,0.03937*%
%ADD26C,0.03000*%
%ADD27R,0.03937X0.03937*%
%ADD28R,0.05906X0.05906*%
%ADD29C,0.05906*%
%ADD30C,0.02500*%
%ADD31R,0.20000X0.20000*%
%ADD32R,0.15590X0.15590*%
%ADD33R,0.05512X0.08268*%
G36*
X340107Y43461D02*
X343381Y42909D01*
X345580Y42163D01*
X347662Y41136D01*
X349593Y39845D01*
X351339Y38314D01*
X352870Y36568D01*
X354160Y34637D01*
X355188Y32555D01*
X355934Y30356D01*
X356486Y27082D01*
X356500Y25975D01*
X356486Y24868D01*
X355934Y21594D01*
X355188Y19395D01*
X354160Y17312D01*
X352870Y15382D01*
X351339Y13635D01*
X349593Y12104D01*
X347662Y10814D01*
X345579Y9787D01*
X343380Y9041D01*
X340107Y8488D01*
X339000Y8475D01*
X339000Y18475D01*
X339400Y18466D01*
X340598Y18579D01*
X341982Y18999D01*
X343258Y19681D01*
X344376Y20598D01*
X345294Y21716D01*
X345975Y22992D01*
X346395Y24376D01*
X346508Y25574D01*
X346500Y25975D01*
X346484Y26688D01*
X345952Y28757D01*
X345240Y30089D01*
X344282Y31257D01*
X343114Y32215D01*
X341782Y32927D01*
X339713Y33459D01*
X339000Y33475D01*
X339000Y43475D01*
X340107Y43461D01*
D02*
G37*
G36*
X440107D02*
X443381Y42909D01*
X445580Y42163D01*
X447662Y41136D01*
X449593Y39845D01*
X451339Y38314D01*
X452870Y36568D01*
X454160Y34637D01*
X455188Y32555D01*
X455934Y30356D01*
X456486Y27082D01*
X456500Y25975D01*
X456486Y24868D01*
X455934Y21594D01*
X455188Y19395D01*
X454160Y17312D01*
X452870Y15382D01*
X451339Y13635D01*
X449593Y12104D01*
X447662Y10814D01*
X445579Y9787D01*
X443380Y9041D01*
X440107Y8488D01*
X439000Y8475D01*
X439000Y18475D01*
X439400Y18466D01*
X440598Y18579D01*
X441982Y18999D01*
X443258Y19681D01*
X444376Y20598D01*
X445294Y21716D01*
X445975Y22992D01*
X446395Y24376D01*
X446508Y25574D01*
X446500Y25975D01*
X446484Y26688D01*
X445952Y28757D01*
X445240Y30089D01*
X444282Y31257D01*
X443114Y32215D01*
X441782Y32927D01*
X439713Y33459D01*
X439000Y33475D01*
X439000Y43475D01*
X440107Y43461D01*
D02*
G37*
G36*
X58864Y38966D02*
Y38002D01*
X57297Y38002D01*
X56656Y38578D01*
X56184Y39262D01*
X54561Y41154D01*
X52764Y42730D01*
X50776Y44058D01*
X48632Y45116D01*
X46368Y45884D01*
X44024Y46351D01*
X42029Y46476D01*
X41364Y46466D01*
Y56466D01*
X58864D01*
X58864Y38966D01*
D02*
G37*
G36*
X-29433Y27464D02*
X-28373Y26304D01*
X-27983Y25783D01*
X-26697Y24312D01*
X-24900Y22735D01*
X-22912Y21407D01*
X-20768Y20350D01*
X-18505Y19581D01*
X-16160Y19115D01*
X-14166Y18990D01*
X-13500Y19000D01*
Y9000D01*
X-31000D01*
X-31000Y26500D01*
Y27464D01*
X-29433Y27464D01*
D02*
G37*
G36*
X640107Y43461D02*
X643381Y42909D01*
X645580Y42163D01*
X647662Y41136D01*
X649593Y39845D01*
X651339Y38314D01*
X652870Y36568D01*
X654160Y34637D01*
X655188Y32555D01*
X655934Y30356D01*
X656486Y27082D01*
X656500Y25975D01*
X656486Y24868D01*
X655934Y21594D01*
X655188Y19395D01*
X654160Y17312D01*
X652870Y15382D01*
X651339Y13635D01*
X649593Y12104D01*
X647662Y10814D01*
X645579Y9787D01*
X643380Y9041D01*
X640107Y8488D01*
X639000Y8475D01*
X639000Y18475D01*
X639400Y18466D01*
X640598Y18579D01*
X641982Y18999D01*
X643258Y19681D01*
X644376Y20598D01*
X645294Y21716D01*
X645975Y22992D01*
X646395Y24376D01*
X646508Y25574D01*
X646500Y25975D01*
X646484Y26688D01*
X645952Y28757D01*
X645240Y30089D01*
X644282Y31257D01*
X643114Y32215D01*
X641782Y32927D01*
X639713Y33459D01*
X639000Y33475D01*
X639000Y43475D01*
X640107Y43461D01*
D02*
G37*
G36*
X140107D02*
X143381Y42909D01*
X145580Y42163D01*
X147662Y41136D01*
X149593Y39845D01*
X151339Y38314D01*
X152870Y36568D01*
X154160Y34637D01*
X155188Y32555D01*
X155934Y30356D01*
X156486Y27082D01*
X156500Y25975D01*
X156486Y24868D01*
X155934Y21594D01*
X155187Y19395D01*
X154160Y17312D01*
X152870Y15382D01*
X151339Y13635D01*
X149593Y12104D01*
X147662Y10814D01*
X145579Y9787D01*
X143380Y9041D01*
X140107Y8488D01*
X139000Y8475D01*
X139000Y18475D01*
X139400Y18466D01*
X140598Y18579D01*
X141982Y18999D01*
X143258Y19681D01*
X144376Y20598D01*
X145294Y21716D01*
X145975Y22992D01*
X146395Y24376D01*
X146508Y25574D01*
X146500Y25975D01*
X146484Y26688D01*
X145952Y28757D01*
X145240Y30089D01*
X144282Y31257D01*
X143114Y32215D01*
X141782Y32927D01*
X139713Y33459D01*
X139000Y33475D01*
X139000Y43475D01*
X140107Y43461D01*
D02*
G37*
G36*
X240107D02*
X243381Y42909D01*
X245580Y42163D01*
X247662Y41136D01*
X249593Y39845D01*
X251339Y38314D01*
X252870Y36568D01*
X254160Y34637D01*
X255188Y32555D01*
X255934Y30356D01*
X256486Y27082D01*
X256500Y25975D01*
X256486Y24868D01*
X255934Y21594D01*
X255188Y19395D01*
X254160Y17312D01*
X252870Y15382D01*
X251339Y13635D01*
X249593Y12104D01*
X247662Y10814D01*
X245579Y9787D01*
X243380Y9041D01*
X240107Y8488D01*
X239000Y8475D01*
X239000Y18475D01*
X239400Y18466D01*
X240598Y18579D01*
X241982Y18999D01*
X243258Y19681D01*
X244376Y20598D01*
X245294Y21716D01*
X245975Y22992D01*
X246395Y24376D01*
X246508Y25574D01*
X246500Y25975D01*
X246484Y26688D01*
X245952Y28757D01*
X245240Y30089D01*
X244282Y31257D01*
X243114Y32215D01*
X241782Y32927D01*
X239713Y33459D01*
X239000Y33475D01*
X239000Y43475D01*
X240107Y43461D01*
D02*
G37*
G36*
X256364Y38466D02*
Y37502D01*
X254797Y37502D01*
X254155Y38078D01*
X253684Y38762D01*
X252061Y40654D01*
X250264Y42230D01*
X248276Y43558D01*
X246132Y44616D01*
X243868Y45384D01*
X241524Y45851D01*
X239529Y45976D01*
X238864Y45966D01*
Y55966D01*
X256364D01*
X256364Y38466D01*
D02*
G37*
G36*
X156363D02*
Y37502D01*
X154797Y37502D01*
X154156Y38078D01*
X153684Y38762D01*
X152061Y40654D01*
X150264Y42230D01*
X148276Y43558D01*
X146132Y44616D01*
X143868Y45384D01*
X141524Y45851D01*
X139529Y45976D01*
X138864Y45966D01*
Y55966D01*
X156364D01*
X156363Y38466D01*
D02*
G37*
G36*
X540107Y43461D02*
X543381Y42909D01*
X545580Y42163D01*
X547662Y41136D01*
X549593Y39845D01*
X551339Y38314D01*
X552870Y36568D01*
X554160Y34637D01*
X555188Y32555D01*
X555934Y30356D01*
X556486Y27082D01*
X556500Y25975D01*
X556486Y24868D01*
X555934Y21594D01*
X555188Y19395D01*
X554160Y17312D01*
X552870Y15382D01*
X551339Y13635D01*
X549593Y12104D01*
X547662Y10814D01*
X545579Y9787D01*
X543380Y9041D01*
X540107Y8488D01*
X539000Y8475D01*
X539000Y18475D01*
X539400Y18466D01*
X540598Y18579D01*
X541982Y18999D01*
X543258Y19681D01*
X544376Y20598D01*
X545294Y21716D01*
X545975Y22992D01*
X546395Y24376D01*
X546508Y25574D01*
X546500Y25975D01*
X546484Y26688D01*
X545952Y28757D01*
X545240Y30089D01*
X544282Y31257D01*
X543114Y32215D01*
X541782Y32927D01*
X539713Y33459D01*
X539000Y33475D01*
X539000Y43475D01*
X540107Y43461D01*
D02*
G37*
G36*
X356364Y38466D02*
Y37502D01*
X354797Y37502D01*
X354155Y38078D01*
X353684Y38762D01*
X352061Y40654D01*
X350264Y42230D01*
X348276Y43558D01*
X346132Y44616D01*
X343868Y45384D01*
X341524Y45851D01*
X339529Y45976D01*
X338864Y45966D01*
Y55966D01*
X356364D01*
X356364Y38466D01*
D02*
G37*
G36*
X656363D02*
Y37502D01*
X654797Y37502D01*
X654155Y38078D01*
X653684Y38762D01*
X652061Y40654D01*
X650264Y42230D01*
X648276Y43558D01*
X646132Y44616D01*
X643868Y45384D01*
X641524Y45851D01*
X639529Y45976D01*
X638864Y45966D01*
Y55966D01*
X656364D01*
X656363Y38466D01*
D02*
G37*
G36*
X556363D02*
Y37502D01*
X554797Y37502D01*
X554155Y38078D01*
X553684Y38762D01*
X552061Y40654D01*
X550264Y42230D01*
X548276Y43558D01*
X546132Y44616D01*
X543868Y45384D01*
X541524Y45851D01*
X539529Y45976D01*
X538864Y45966D01*
Y55966D01*
X556364D01*
X556363Y38466D01*
D02*
G37*
G36*
X456363D02*
Y37502D01*
X454797Y37502D01*
X454155Y38078D01*
X453684Y38762D01*
X452061Y40654D01*
X450264Y42230D01*
X448276Y43558D01*
X446132Y44616D01*
X443868Y45384D01*
X441524Y45851D01*
X439529Y45976D01*
X438864Y45966D01*
Y55966D01*
X456364D01*
X456363Y38466D01*
D02*
G37*
G36*
X42607Y43961D02*
X45881Y43409D01*
X48080Y42663D01*
X50162Y41636D01*
X52093Y40345D01*
X53839Y38814D01*
X55370Y37068D01*
X56660Y35137D01*
X57688Y33055D01*
X58434Y30856D01*
X58986Y27582D01*
X59000Y26475D01*
X58986Y25368D01*
X58434Y22094D01*
X57687Y19895D01*
X56660Y17812D01*
X55370Y15881D01*
X53839Y14135D01*
X52093Y12604D01*
X50162Y11314D01*
X48079Y10287D01*
X45880Y9540D01*
X42607Y8988D01*
X41500Y8975D01*
X41500Y18975D01*
X41900Y18966D01*
X43098Y19079D01*
X44482Y19499D01*
X45758Y20181D01*
X46876Y21098D01*
X47793Y22217D01*
X48475Y23492D01*
X48895Y24876D01*
X49008Y26074D01*
X49000Y26475D01*
X48984Y27188D01*
X48452Y29257D01*
X47740Y30589D01*
X46782Y31757D01*
X45614Y32715D01*
X44282Y33427D01*
X42213Y33959D01*
X41500Y33975D01*
X41500Y43975D01*
X42607Y43961D01*
D02*
G37*
G36*
X368067Y26964D02*
X369127Y25804D01*
X369517Y25283D01*
X370803Y23812D01*
X372600Y22235D01*
X374588Y20907D01*
X376732Y19850D01*
X378995Y19082D01*
X381340Y18615D01*
X383334Y18490D01*
X384000Y18500D01*
Y8500D01*
X366500D01*
X366500Y26000D01*
Y26964D01*
X368067Y26964D01*
D02*
G37*
G36*
X468067D02*
X469127Y25804D01*
X469518Y25283D01*
X470803Y23812D01*
X472600Y22235D01*
X474588Y20907D01*
X476732Y19850D01*
X478995Y19082D01*
X481340Y18615D01*
X483334Y18490D01*
X484000Y18500D01*
Y8500D01*
X466500D01*
X466500Y26000D01*
Y26964D01*
X468067Y26964D01*
D02*
G37*
G36*
X568067D02*
X569127Y25804D01*
X569518Y25283D01*
X570803Y23812D01*
X572600Y22235D01*
X574588Y20907D01*
X576732Y19850D01*
X578995Y19082D01*
X581340Y18615D01*
X583334Y18490D01*
X584000Y18500D01*
Y8500D01*
X566500D01*
X566500Y26000D01*
Y26964D01*
X568067Y26964D01*
D02*
G37*
G36*
X268067D02*
X269127Y25804D01*
X269517Y25283D01*
X270803Y23812D01*
X272600Y22235D01*
X274588Y20907D01*
X276732Y19850D01*
X278995Y19082D01*
X281340Y18615D01*
X283334Y18490D01*
X284000Y18500D01*
Y8500D01*
X266500D01*
X266500Y26000D01*
Y26964D01*
X268067Y26964D01*
D02*
G37*
G36*
X915000Y0D02*
X792500D01*
Y10767D01*
X793000Y11111D01*
X793500Y11012D01*
X793502Y11012D01*
X802041Y2473D01*
X802041Y2473D01*
X802405Y2230D01*
X802834Y2145D01*
X802834Y2145D01*
X895711D01*
X895712Y2145D01*
X896141Y2230D01*
X896504Y2473D01*
X901410Y7378D01*
X906761D01*
Y3666D01*
X913672D01*
Y13334D01*
X911338D01*
Y39493D01*
X913672D01*
Y49161D01*
X911338D01*
Y51746D01*
X911488Y52500D01*
X911337Y53261D01*
X910906Y53906D01*
X910261Y54337D01*
X909500Y54488D01*
X908739Y54337D01*
X908094Y53906D01*
X907663Y53261D01*
X907512Y52500D01*
X907663Y51739D01*
X908094Y51094D01*
X908739Y50663D01*
X909095Y50592D01*
Y49161D01*
X906761D01*
Y39493D01*
X909095D01*
Y13334D01*
X906761D01*
Y9622D01*
X900945D01*
X900945Y9622D01*
X900516Y9536D01*
X900152Y9293D01*
X900152Y9293D01*
X896718Y5858D01*
X896256Y6050D01*
Y8205D01*
X896500Y8405D01*
Y11000D01*
Y13450D01*
X896484Y13446D01*
X896256Y13634D01*
Y13634D01*
X893000D01*
Y8500D01*
X892500D01*
Y8000D01*
X888744D01*
Y4388D01*
X803298D01*
X795355Y12331D01*
X795488Y13000D01*
X795337Y13761D01*
X794906Y14406D01*
X794261Y14837D01*
X793500Y14988D01*
X793398Y14968D01*
X792958Y15307D01*
X793000Y15512D01*
X793761Y15663D01*
X794406Y16094D01*
X794837Y16739D01*
X794988Y17500D01*
X794837Y18261D01*
X794406Y18906D01*
X793761Y19337D01*
X793000Y19488D01*
X792886Y19466D01*
X792500Y19783D01*
Y38012D01*
X793261Y38163D01*
X793554Y38359D01*
X806579Y25335D01*
X806512Y25000D01*
X806663Y24239D01*
X807094Y23594D01*
X807739Y23163D01*
X808500Y23012D01*
X809261Y23163D01*
X809878Y23576D01*
X810029Y23544D01*
X810378Y23401D01*
Y18596D01*
X810094Y18406D01*
X809663Y17761D01*
X809512Y17000D01*
X809663Y16239D01*
X810094Y15594D01*
X810739Y15163D01*
X811500Y15012D01*
X812261Y15163D01*
X812906Y15594D01*
X813337Y16239D01*
X813488Y17000D01*
X813337Y17761D01*
X812906Y18406D01*
X812622Y18596D01*
Y21705D01*
X820492D01*
Y30500D01*
Y39295D01*
X812197D01*
Y35622D01*
X811697Y35470D01*
X811406Y35906D01*
X810761Y36337D01*
X810000Y36488D01*
X809239Y36337D01*
X808594Y35906D01*
X808163Y35261D01*
X808012Y34500D01*
X808163Y33739D01*
X808594Y33094D01*
X809239Y32663D01*
X810000Y32512D01*
X810378Y32077D01*
Y26599D01*
X810029Y26456D01*
X809878Y26424D01*
X809261Y26837D01*
X808500Y26988D01*
X808165Y26921D01*
X803092Y31994D01*
X803411Y32383D01*
X803739Y32163D01*
X804500Y32012D01*
X805261Y32163D01*
X805906Y32594D01*
X806337Y33239D01*
X806488Y34000D01*
X806337Y34761D01*
X805906Y35406D01*
X805622Y35596D01*
Y46500D01*
X805536Y46929D01*
X805412Y47115D01*
X805488Y47500D01*
X805337Y48261D01*
X804906Y48906D01*
X804261Y49337D01*
X803500Y49488D01*
X802739Y49337D01*
X802094Y48906D01*
X801663Y48261D01*
X801512Y47500D01*
X801663Y46739D01*
X802094Y46094D01*
X802739Y45663D01*
X803378Y45536D01*
Y35596D01*
X803094Y35406D01*
X802663Y34761D01*
X802512Y34000D01*
X802663Y33239D01*
X802883Y32910D01*
X802494Y32592D01*
X794340Y40746D01*
X794337Y40761D01*
X793906Y41406D01*
X793261Y41837D01*
X792500Y41988D01*
Y65000D01*
X915000D01*
Y0D01*
D02*
G37*
G36*
X68067Y26964D02*
X69127Y25804D01*
X69517Y25283D01*
X70803Y23812D01*
X72600Y22235D01*
X74588Y20907D01*
X76732Y19850D01*
X78995Y19082D01*
X81340Y18615D01*
X83334Y18490D01*
X84000Y18500D01*
Y8500D01*
X66500D01*
X66500Y26000D01*
Y26964D01*
X68067Y26964D01*
D02*
G37*
G36*
X168067D02*
X169127Y25804D01*
X169518Y25283D01*
X170803Y23812D01*
X172600Y22235D01*
X174588Y20907D01*
X176732Y19850D01*
X178995Y19082D01*
X181340Y18615D01*
X183334Y18490D01*
X184000Y18500D01*
Y8500D01*
X166500D01*
X166500Y26000D01*
Y26964D01*
X168067Y26964D01*
D02*
G37*
G36*
X284000Y46025D02*
X283600Y46034D01*
X282402Y45921D01*
X281018Y45501D01*
X279742Y44819D01*
X278624Y43902D01*
X277707Y42784D01*
X277025Y41508D01*
X276605Y40124D01*
X276492Y38926D01*
X276500Y38525D01*
X276516Y37812D01*
X277048Y35743D01*
X277760Y34411D01*
X278718Y33243D01*
X279886Y32285D01*
X281218Y31573D01*
X283287Y31041D01*
X284000Y31025D01*
Y31025D01*
X284000Y21025D01*
X282893Y21039D01*
X279619Y21591D01*
X277420Y22337D01*
X275338Y23364D01*
X273407Y24655D01*
X271661Y26186D01*
X270130Y27932D01*
X268840Y29863D01*
X267812Y31945D01*
X267066Y34144D01*
X266514Y37418D01*
X266500Y38525D01*
X266514Y39632D01*
X267066Y42906D01*
X267812Y45105D01*
X268840Y47188D01*
X270130Y49119D01*
X271661Y50865D01*
X273407Y52396D01*
X275338Y53686D01*
X277421Y54713D01*
X279620Y55460D01*
X282893Y56012D01*
X284000Y56025D01*
Y46025D01*
D02*
G37*
G36*
X184000D02*
X183600Y46034D01*
X182402Y45921D01*
X181018Y45501D01*
X179742Y44819D01*
X178624Y43902D01*
X177707Y42784D01*
X177025Y41508D01*
X176605Y40124D01*
X176492Y38926D01*
X176500Y38525D01*
X176516Y37812D01*
X177048Y35743D01*
X177760Y34411D01*
X178718Y33243D01*
X179886Y32285D01*
X181218Y31573D01*
X183287Y31041D01*
X184000Y31025D01*
Y31025D01*
X184000Y21025D01*
X182893Y21039D01*
X179619Y21591D01*
X177420Y22337D01*
X175338Y23364D01*
X173407Y24655D01*
X171661Y26186D01*
X170130Y27932D01*
X168840Y29863D01*
X167812Y31945D01*
X167066Y34144D01*
X166514Y37418D01*
X166500Y38525D01*
X166514Y39632D01*
X167066Y42906D01*
X167812Y45105D01*
X168840Y47188D01*
X170130Y49119D01*
X171661Y50865D01*
X173407Y52396D01*
X175338Y53686D01*
X177421Y54713D01*
X179620Y55460D01*
X182893Y56012D01*
X184000Y56025D01*
Y46025D01*
D02*
G37*
G36*
X84000D02*
X83600Y46034D01*
X82402Y45921D01*
X81018Y45501D01*
X79742Y44819D01*
X78624Y43902D01*
X77706Y42784D01*
X77025Y41508D01*
X76605Y40124D01*
X76492Y38926D01*
X76500Y38525D01*
X76516Y37812D01*
X77048Y35743D01*
X77760Y34411D01*
X78718Y33243D01*
X79886Y32285D01*
X81218Y31573D01*
X83287Y31041D01*
X84000Y31025D01*
Y31025D01*
X84000Y21025D01*
X82893Y21039D01*
X79619Y21591D01*
X77420Y22337D01*
X75338Y23364D01*
X73407Y24655D01*
X71661Y26186D01*
X70130Y27932D01*
X68840Y29863D01*
X67812Y31945D01*
X67066Y34144D01*
X66514Y37418D01*
X66500Y38525D01*
X66514Y39632D01*
X67066Y42906D01*
X67812Y45105D01*
X68840Y47188D01*
X70130Y49119D01*
X71661Y50865D01*
X73407Y52396D01*
X75338Y53686D01*
X77421Y54713D01*
X79620Y55460D01*
X82893Y56012D01*
X84000Y56025D01*
Y46025D01*
D02*
G37*
G36*
X384000D02*
X383600Y46034D01*
X382402Y45921D01*
X381018Y45501D01*
X379742Y44819D01*
X378624Y43902D01*
X377707Y42784D01*
X377025Y41508D01*
X376605Y40124D01*
X376492Y38926D01*
X376500Y38525D01*
X376516Y37812D01*
X377048Y35743D01*
X377760Y34411D01*
X378718Y33243D01*
X379886Y32285D01*
X381218Y31573D01*
X383287Y31041D01*
X384000Y31025D01*
Y31025D01*
X384000Y21025D01*
X382893Y21039D01*
X379619Y21591D01*
X377420Y22337D01*
X375338Y23364D01*
X373407Y24655D01*
X371661Y26186D01*
X370130Y27932D01*
X368840Y29863D01*
X367812Y31945D01*
X367066Y34144D01*
X366514Y37418D01*
X366500Y38525D01*
X366514Y39632D01*
X367066Y42906D01*
X367812Y45105D01*
X368840Y47188D01*
X370130Y49119D01*
X371661Y50865D01*
X373407Y52396D01*
X375338Y53686D01*
X377421Y54713D01*
X379620Y55460D01*
X382893Y56012D01*
X384000Y56025D01*
Y46025D01*
D02*
G37*
G36*
X-13500Y46525D02*
X-13900Y46534D01*
X-15098Y46421D01*
X-16482Y46001D01*
X-17758Y45319D01*
X-18876Y44402D01*
X-19794Y43284D01*
X-20475Y42008D01*
X-20895Y40624D01*
X-21008Y39426D01*
X-21000Y39025D01*
X-20984Y38312D01*
X-20452Y36243D01*
X-19740Y34911D01*
X-18782Y33743D01*
X-17614Y32785D01*
X-16282Y32073D01*
X-14213Y31541D01*
X-13500Y31525D01*
Y31525D01*
X-13500Y21525D01*
X-14607Y21539D01*
X-17881Y22091D01*
X-20080Y22837D01*
X-22162Y23864D01*
X-24093Y25155D01*
X-25839Y26686D01*
X-27370Y28432D01*
X-28661Y30363D01*
X-29688Y32445D01*
X-30434Y34644D01*
X-30986Y37918D01*
X-31000Y39025D01*
X-30986Y40132D01*
X-30434Y43406D01*
X-29688Y45605D01*
X-28660Y47688D01*
X-27370Y49619D01*
X-25839Y51365D01*
X-24093Y52896D01*
X-22162Y54186D01*
X-20079Y55213D01*
X-17880Y55960D01*
X-14607Y56512D01*
X-13500Y56525D01*
Y46525D01*
D02*
G37*
G36*
X584000Y46025D02*
X583600Y46034D01*
X582402Y45921D01*
X581018Y45501D01*
X579742Y44819D01*
X578624Y43902D01*
X577706Y42784D01*
X577025Y41508D01*
X576605Y40124D01*
X576492Y38926D01*
X576500Y38525D01*
X576516Y37812D01*
X577048Y35743D01*
X577760Y34411D01*
X578718Y33243D01*
X579886Y32285D01*
X581218Y31573D01*
X583287Y31041D01*
X584000Y31025D01*
Y31025D01*
X584000Y21025D01*
X582893Y21039D01*
X579619Y21591D01*
X577420Y22337D01*
X575338Y23364D01*
X573407Y24655D01*
X571661Y26186D01*
X570130Y27932D01*
X568840Y29863D01*
X567812Y31945D01*
X567066Y34144D01*
X566514Y37418D01*
X566500Y38525D01*
X566514Y39632D01*
X567066Y42906D01*
X567812Y45105D01*
X568840Y47188D01*
X570130Y49119D01*
X571661Y50865D01*
X573407Y52396D01*
X575338Y53686D01*
X577421Y54713D01*
X579620Y55460D01*
X582893Y56012D01*
X584000Y56025D01*
Y46025D01*
D02*
G37*
G36*
X484000D02*
X483600Y46034D01*
X482402Y45921D01*
X481018Y45501D01*
X479742Y44819D01*
X478624Y43902D01*
X477706Y42784D01*
X477025Y41508D01*
X476605Y40124D01*
X476492Y38926D01*
X476500Y38525D01*
X476516Y37812D01*
X477048Y35743D01*
X477760Y34411D01*
X478718Y33243D01*
X479886Y32285D01*
X481218Y31573D01*
X483287Y31041D01*
X484000Y31025D01*
Y31025D01*
X484000Y21025D01*
X482893Y21039D01*
X479619Y21591D01*
X477420Y22337D01*
X475338Y23364D01*
X473407Y24655D01*
X471661Y26186D01*
X470130Y27932D01*
X468840Y29863D01*
X467812Y31945D01*
X467066Y34144D01*
X466514Y37418D01*
X466500Y38525D01*
X466514Y39632D01*
X467066Y42906D01*
X467812Y45105D01*
X468840Y47188D01*
X470130Y49119D01*
X471661Y50865D01*
X473407Y52396D01*
X475338Y53686D01*
X477421Y54713D01*
X479620Y55460D01*
X482893Y56012D01*
X484000Y56025D01*
Y46025D01*
D02*
G37*
%LPC*%
G36*
X801874Y16075D02*
X801399Y15981D01*
X800572Y15428D01*
X800019Y14601D01*
X799925Y14126D01*
X801874D01*
Y16075D01*
D02*
G37*
G36*
X883772Y13819D02*
X881500D01*
Y11744D01*
X883772D01*
Y13819D01*
D02*
G37*
G36*
Y10744D02*
X881500D01*
Y8669D01*
X883772D01*
Y10744D01*
D02*
G37*
G36*
X892000Y13634D02*
X888744D01*
Y9000D01*
X892000D01*
Y13634D01*
D02*
G37*
G36*
X899450Y10500D02*
X897500D01*
Y8551D01*
X897975Y8645D01*
X898802Y9198D01*
X899355Y10025D01*
X899450Y10500D01*
D02*
G37*
G36*
X880500Y10744D02*
X878228D01*
Y8669D01*
X880500D01*
Y10744D01*
D02*
G37*
G36*
X848000Y16691D02*
X847303Y16600D01*
X846654Y16331D01*
X846097Y15903D01*
X845669Y15346D01*
X845400Y14697D01*
X845308Y14000D01*
X845400Y13303D01*
X845669Y12654D01*
X846097Y12097D01*
X846654Y11669D01*
X847303Y11400D01*
X848000Y11309D01*
X848697Y11400D01*
X848921Y11493D01*
X850207Y10207D01*
X850571Y9964D01*
X851000Y9878D01*
X851000Y9878D01*
X868404D01*
X868594Y9594D01*
X869239Y9163D01*
X870000Y9012D01*
X870761Y9163D01*
X871406Y9594D01*
X871837Y10239D01*
X871988Y11000D01*
X871837Y11761D01*
X871406Y12406D01*
X870761Y12837D01*
X870000Y12988D01*
X869239Y12837D01*
X868594Y12406D01*
X868404Y12122D01*
X851465D01*
X850507Y13079D01*
X850600Y13303D01*
X850692Y14000D01*
X850600Y14697D01*
X850331Y15346D01*
X849903Y15903D01*
X849346Y16331D01*
X848697Y16600D01*
X848000Y16691D01*
D02*
G37*
G36*
X897500Y13450D02*
Y11500D01*
X899450D01*
X899355Y11975D01*
X898802Y12802D01*
X897975Y13355D01*
X897500Y13450D01*
D02*
G37*
G36*
X880500Y13819D02*
X878228D01*
Y11744D01*
X880500D01*
Y13819D01*
D02*
G37*
G36*
X801874Y13126D02*
X799925D01*
X800019Y12651D01*
X800572Y11824D01*
X801399Y11271D01*
X801874Y11176D01*
Y13126D01*
D02*
G37*
G36*
X804823D02*
X802874D01*
Y11176D01*
X803349Y11271D01*
X804176Y11824D01*
X804729Y12651D01*
X804823Y13126D01*
D02*
G37*
G36*
X802874Y16075D02*
Y14126D01*
X804823D01*
X804729Y14601D01*
X804176Y15428D01*
X803349Y15981D01*
X802874Y16075D01*
D02*
G37*
G36*
X821776Y49725D02*
X821300Y49630D01*
X820473Y49078D01*
X819921Y48251D01*
X819826Y47776D01*
X821776D01*
Y49725D01*
D02*
G37*
G36*
X822776D02*
Y47776D01*
X824725D01*
X824631Y48251D01*
X824078Y49078D01*
X823251Y49630D01*
X822776Y49725D01*
D02*
G37*
G36*
X892000Y49461D02*
X888744D01*
Y44827D01*
X892000D01*
Y49461D01*
D02*
G37*
G36*
X896256D02*
X893000D01*
Y44827D01*
X896256D01*
Y49461D01*
D02*
G37*
G36*
X870000Y63184D02*
X869046Y63059D01*
X868158Y62691D01*
X867395Y62105D01*
X866809Y61342D01*
X866441Y60454D01*
X866316Y59500D01*
X866441Y58546D01*
X866809Y57658D01*
X867395Y56895D01*
X868158Y56309D01*
X869046Y55941D01*
X870000Y55816D01*
X870954Y55941D01*
X871842Y56309D01*
X872605Y56895D01*
X873191Y57658D01*
X873559Y58546D01*
X873684Y59500D01*
X873559Y60454D01*
X873191Y61342D01*
X872605Y62105D01*
X871842Y62691D01*
X870954Y63059D01*
X870000Y63184D01*
D02*
G37*
G36*
X900000D02*
X899046Y63059D01*
X898158Y62691D01*
X897395Y62105D01*
X896809Y61342D01*
X896441Y60454D01*
X896316Y59500D01*
X896441Y58546D01*
X896809Y57658D01*
X897395Y56895D01*
X898158Y56309D01*
X899046Y55941D01*
X900000Y55816D01*
X900954Y55941D01*
X901842Y56309D01*
X902605Y56895D01*
X903191Y57658D01*
X903559Y58546D01*
X903684Y59500D01*
X903559Y60454D01*
X903191Y61342D01*
X902605Y62105D01*
X901842Y62691D01*
X900954Y63059D01*
X900000Y63184D01*
D02*
G37*
G36*
X863653Y63153D02*
X856347D01*
Y55847D01*
X863653D01*
Y63153D01*
D02*
G37*
G36*
X880000Y63184D02*
X879046Y63059D01*
X878158Y62691D01*
X877395Y62105D01*
X876809Y61342D01*
X876441Y60454D01*
X876316Y59500D01*
X876441Y58546D01*
X876809Y57658D01*
X877395Y56895D01*
X878158Y56309D01*
X879046Y55941D01*
X880000Y55816D01*
X880954Y55941D01*
X881842Y56309D01*
X882605Y56895D01*
X883191Y57658D01*
X883559Y58546D01*
X883684Y59500D01*
X883559Y60454D01*
X883191Y61342D01*
X882605Y62105D01*
X881842Y62691D01*
X880954Y63059D01*
X880000Y63184D01*
D02*
G37*
G36*
X890000D02*
X889046Y63059D01*
X888158Y62691D01*
X887395Y62105D01*
X886809Y61342D01*
X886441Y60454D01*
X886316Y59500D01*
X886441Y58546D01*
X886809Y57658D01*
X887395Y56895D01*
X888158Y56309D01*
X889046Y55941D01*
X890000Y55816D01*
X890954Y55941D01*
X891842Y56309D01*
X892605Y56895D01*
X893191Y57658D01*
X893559Y58546D01*
X893684Y59500D01*
X893559Y60454D01*
X893191Y61342D01*
X892605Y62105D01*
X891842Y62691D01*
X890954Y63059D01*
X890000Y63184D01*
D02*
G37*
G36*
X824725Y46776D02*
X822776D01*
Y44826D01*
X823251Y44921D01*
X824078Y45473D01*
X824631Y46300D01*
X824725Y46776D01*
D02*
G37*
G36*
X829787Y30000D02*
X821492D01*
Y21705D01*
X829787D01*
Y30000D01*
D02*
G37*
G36*
X839000Y39988D02*
X838239Y39837D01*
X837594Y39406D01*
X837163Y38761D01*
X837012Y38000D01*
X837163Y37239D01*
X837594Y36594D01*
X837878Y36404D01*
Y34465D01*
X832835Y29421D01*
X832500Y29488D01*
X831739Y29337D01*
X831094Y28906D01*
X830663Y28261D01*
X830512Y27500D01*
X830663Y26739D01*
X831094Y26094D01*
X831739Y25663D01*
X832500Y25512D01*
X833261Y25663D01*
X833906Y26094D01*
X834337Y26739D01*
X834488Y27500D01*
X834422Y27835D01*
X839793Y33207D01*
X839793Y33207D01*
X840036Y33571D01*
X840122Y34000D01*
X840122Y34000D01*
Y36404D01*
X840406Y36594D01*
X840837Y37239D01*
X840988Y38000D01*
X840837Y38761D01*
X840406Y39406D01*
X839761Y39837D01*
X839000Y39988D01*
D02*
G37*
G36*
X863227Y49793D02*
X862368Y49622D01*
X861641Y49136D01*
X861155Y48408D01*
X860984Y47550D01*
X861155Y46692D01*
X861267Y46524D01*
Y45500D01*
X861399Y44837D01*
X861774Y44274D01*
X864387Y41662D01*
X864195Y41200D01*
X860784D01*
Y19800D01*
X866085D01*
X866223Y19300D01*
X865928Y18858D01*
X865757Y18000D01*
X865928Y17142D01*
X866414Y16414D01*
X867142Y15928D01*
X868000Y15757D01*
X868858Y15928D01*
X869586Y16414D01*
X870072Y17142D01*
X870243Y18000D01*
X870072Y18858D01*
X869777Y19300D01*
X869915Y19800D01*
X875505D01*
X878528Y16776D01*
Y14481D01*
X883472D01*
Y14767D01*
X886634D01*
X887142Y14428D01*
X888000Y14257D01*
X888858Y14428D01*
X889586Y14914D01*
X890072Y15642D01*
X890243Y16500D01*
X890072Y17358D01*
X889586Y18086D01*
X888858Y18572D01*
X888000Y18743D01*
X887142Y18572D01*
X886634Y18233D01*
X883472D01*
Y19031D01*
X881215D01*
X880964Y19340D01*
X881164Y19800D01*
X882184D01*
Y38749D01*
X884226Y40790D01*
X884601Y41352D01*
X884625Y41472D01*
X885072Y42142D01*
X885243Y43000D01*
X885072Y43858D01*
X884586Y44586D01*
X883858Y45072D01*
X883000Y45243D01*
X882142Y45072D01*
X881414Y44586D01*
X880928Y43858D01*
X880757Y43000D01*
X880886Y42353D01*
X879733Y41200D01*
X869751D01*
X864883Y46068D01*
X865299Y46692D01*
X865470Y47550D01*
X865299Y48408D01*
X864813Y49136D01*
X864085Y49622D01*
X863227Y49793D01*
D02*
G37*
G36*
X848000Y22692D02*
X847303Y22600D01*
X846654Y22331D01*
X846097Y21903D01*
X845669Y21346D01*
X845400Y20697D01*
X845308Y20000D01*
X845400Y19303D01*
X845669Y18654D01*
X846097Y18097D01*
X846654Y17669D01*
X847303Y17400D01*
X848000Y17309D01*
X848697Y17400D01*
X849346Y17669D01*
X849903Y18097D01*
X850331Y18654D01*
X850600Y19303D01*
X850692Y20000D01*
X850600Y20697D01*
X850331Y21346D01*
X849903Y21903D01*
X849346Y22331D01*
X848697Y22600D01*
X848000Y22692D01*
D02*
G37*
G36*
X829787Y39295D02*
X821492D01*
Y31000D01*
X829787D01*
Y39295D01*
D02*
G37*
G36*
X854000Y47488D02*
X853239Y47337D01*
X852594Y46906D01*
X852163Y46261D01*
X852012Y45500D01*
X852079Y45165D01*
X851657Y44743D01*
X851414Y44379D01*
X851328Y43950D01*
X851328Y43950D01*
Y41988D01*
X850887Y41752D01*
X850761Y41837D01*
X850000Y41988D01*
X849239Y41837D01*
X848594Y41406D01*
X848163Y40761D01*
X848012Y40000D01*
X848079Y39665D01*
X842835Y34422D01*
X842500Y34488D01*
X841739Y34337D01*
X841094Y33906D01*
X840663Y33261D01*
X840512Y32500D01*
X840663Y31739D01*
X841094Y31094D01*
X841739Y30663D01*
X842500Y30512D01*
X843261Y30663D01*
X843906Y31094D01*
X844337Y31739D01*
X844488Y32500D01*
X844421Y32835D01*
X849665Y38078D01*
X850000Y38012D01*
X850728Y38157D01*
X850837Y38154D01*
X851228Y37945D01*
Y33315D01*
X849207Y31293D01*
X848964Y30929D01*
X848878Y30500D01*
X848878Y30500D01*
Y30096D01*
X848594Y29906D01*
X848163Y29261D01*
X848012Y28500D01*
X848163Y27739D01*
X848594Y27094D01*
X849239Y26663D01*
X850000Y26512D01*
X850761Y26663D01*
X851406Y27094D01*
X851837Y27739D01*
X851988Y28500D01*
X851837Y29261D01*
X851406Y29906D01*
X851369Y30283D01*
X853143Y32057D01*
X853143Y32057D01*
X853386Y32421D01*
X853472Y32850D01*
Y39899D01*
X853486Y39921D01*
X853572Y40350D01*
Y43087D01*
X854000Y43512D01*
X854761Y43663D01*
X855406Y44094D01*
X855837Y44739D01*
X855988Y45500D01*
X855837Y46261D01*
X855406Y46906D01*
X854761Y47337D01*
X854000Y47488D01*
D02*
G37*
G36*
X821776Y46776D02*
X819826D01*
X819921Y46300D01*
X820473Y45473D01*
X821300Y44921D01*
X821776Y44826D01*
Y46776D01*
D02*
G37*
G36*
X892000Y43827D02*
X888744D01*
Y39193D01*
X892000D01*
Y43827D01*
D02*
G37*
G36*
X896256D02*
X893000D01*
Y39193D01*
X896256D01*
Y43827D01*
D02*
G37*
%LPD*%
D10*
X411500Y13500D02*
D03*
Y26000D02*
D03*
Y38500D02*
D03*
X411493Y50951D02*
D03*
X211500Y13500D02*
D03*
Y26000D02*
D03*
Y38500D02*
D03*
X211493Y50951D02*
D03*
X111493Y50951D02*
D03*
X111500Y38500D02*
D03*
Y26000D02*
D03*
Y13500D02*
D03*
X311500D02*
D03*
Y26000D02*
D03*
Y38500D02*
D03*
X311493Y50951D02*
D03*
X611500Y13500D02*
D03*
Y26000D02*
D03*
Y38500D02*
D03*
X611493Y50951D02*
D03*
X511493D02*
D03*
X511500Y38500D02*
D03*
Y26000D02*
D03*
Y13500D02*
D03*
X14000Y14000D02*
D03*
Y26500D02*
D03*
Y39000D02*
D03*
X13993Y51451D02*
D03*
D14*
X881000Y11244D02*
D03*
Y16756D02*
D03*
D22*
X848000Y14000D02*
X851000Y11000D01*
X870000D01*
X852350Y32850D02*
Y40350D01*
X852450D02*
Y43950D01*
X854000Y45500D01*
X850000Y30500D02*
X852350Y32850D01*
X850000Y28500D02*
Y30500D01*
X440107Y8893D02*
X444500Y4500D01*
X440107Y8893D02*
Y12357D01*
X439000Y13464D02*
X440107Y12357D01*
X444500Y4500D02*
X775500D01*
X909500Y52500D02*
X910217Y51784D01*
Y8500D02*
Y44327D01*
Y51784D01*
X811500Y17000D02*
Y33000D01*
X810000Y34500D02*
X811500Y33000D01*
X900945Y8500D02*
X910217D01*
X895712Y3266D02*
X900945Y8500D01*
X802834Y3266D02*
X895712D01*
X842500Y32500D02*
X850000Y40000D01*
X839000Y34000D02*
Y38000D01*
X832500Y27500D02*
X839000Y34000D01*
X792500Y40000D02*
X793500D01*
X808500Y25000D01*
X804500Y34000D02*
Y46500D01*
X803500Y47500D02*
X804500Y46500D01*
X778000Y2500D02*
X793000Y17500D01*
X787000Y28500D02*
X789000Y30500D01*
X793100Y13000D02*
X793500D01*
X793100D02*
X802834Y3266D01*
X790000Y19000D02*
Y26500D01*
X774000Y7500D02*
X787000Y20500D01*
Y28500D01*
X772000Y10000D02*
X783500Y21500D01*
Y31000D01*
X787000Y34500D01*
X762500Y44000D02*
X763000D01*
X751500Y34500D02*
X758000Y28000D01*
X751500Y34500D02*
Y45500D01*
X758500Y41000D02*
Y43000D01*
X742500Y59000D02*
X758500Y43000D01*
X62500Y37500D02*
Y48500D01*
X56500Y31500D02*
X62500Y37500D01*
Y48500D02*
X77000Y63000D01*
X743500D01*
X762500Y44000D01*
X171500Y59000D02*
X742500D01*
X161500Y49000D02*
X171500Y59000D01*
X161500Y38500D02*
Y49000D01*
X154000Y31000D02*
X161500Y38500D01*
X749000Y48000D02*
X751500Y45500D01*
X775500Y4500D02*
X790000Y19000D01*
X654000Y10000D02*
X772000D01*
X650000Y14000D02*
X654000Y10000D01*
D23*
X876556Y14500D02*
X879556Y11500D01*
X862000Y14500D02*
X876556D01*
X852500Y24000D02*
X862000Y14500D01*
X868000Y18000D02*
Y26016D01*
X867500Y26516D02*
X868000Y26016D01*
X867500Y26516D02*
X871484Y30500D01*
X863000Y47323D02*
X863227Y47550D01*
X863000Y45500D02*
Y47323D01*
Y45500D02*
X871484Y37016D01*
X827492Y24000D02*
X852500D01*
X820992Y30500D02*
X827492Y24000D01*
X802248Y13500D02*
X802374Y13626D01*
X881000Y11244D02*
X889756D01*
X892500Y8500D01*
Y44327D01*
X895000Y11000D02*
X897000D01*
X892500Y8500D02*
X895000Y11000D01*
X881256Y16500D02*
X888000D01*
X871484Y26272D02*
Y30500D01*
Y26272D02*
X881000Y16756D01*
X881256Y16500D01*
X871484Y30500D02*
Y37016D01*
X822276Y31784D02*
Y47276D01*
X820992Y30500D02*
X822276Y31784D01*
X883000Y42016D02*
Y43000D01*
X871484Y30500D02*
X883000Y42016D01*
X813000Y13500D02*
X816000Y16500D01*
Y25508D01*
X820992Y30500D01*
X802248Y13500D02*
X813000D01*
X815224Y47276D02*
X822276D01*
X807500Y55000D02*
X815224Y47276D01*
X772000Y29500D02*
Y30500D01*
X770331Y31332D02*
Y54168D01*
X769000Y55500D02*
X770331Y54168D01*
X763000Y24000D02*
X770331Y31332D01*
X779500Y55000D02*
X807500D01*
X779000Y55500D02*
X779500Y55000D01*
X733500Y41500D02*
X760000Y15000D01*
X655000Y41500D02*
X733500D01*
X760000Y15000D02*
X763000D01*
X764500D01*
X763000D02*
Y24000D01*
X555500Y38000D02*
X568000D01*
X455500D02*
X468000D01*
X356000D02*
X367500D01*
X354000Y40000D02*
X356000Y38000D01*
X256500D02*
X268000D01*
X254500Y40000D02*
X256500Y38000D01*
D25*
X848000Y20000D02*
D03*
Y14000D02*
D03*
X769000Y55500D02*
D03*
Y60500D02*
D03*
X774000Y55500D02*
D03*
Y60500D02*
D03*
X779000Y55500D02*
D03*
D26*
X384000Y51036D02*
D03*
X438863Y50977D02*
D03*
X439000Y38487D02*
D03*
X384000Y26013D02*
D03*
X384000Y38500D02*
D03*
X439000Y26000D02*
D03*
X439000Y13464D02*
D03*
X384000Y13488D02*
D03*
X184001Y51036D02*
D03*
X238863Y50977D02*
D03*
X239000Y38487D02*
D03*
X184000Y26013D02*
D03*
X184000Y38500D02*
D03*
X239000Y26000D02*
D03*
X239000Y13464D02*
D03*
X184000Y13488D02*
D03*
X84000Y13488D02*
D03*
X138999Y13464D02*
D03*
X139000Y26000D02*
D03*
X84000Y38500D02*
D03*
X84000Y26013D02*
D03*
X139000Y38487D02*
D03*
X138864Y50977D02*
D03*
X84000Y51036D02*
D03*
X284000D02*
D03*
X338863Y50977D02*
D03*
X339000Y38487D02*
D03*
X284000Y26013D02*
D03*
X284000Y38500D02*
D03*
X339000Y26000D02*
D03*
X339000Y13464D02*
D03*
X284000Y13488D02*
D03*
X584000Y51036D02*
D03*
X638864Y50977D02*
D03*
X639000Y38487D02*
D03*
X584000Y26013D02*
D03*
X584000Y38500D02*
D03*
X639000Y26000D02*
D03*
X639000Y13464D02*
D03*
X584000Y13488D02*
D03*
X484000D02*
D03*
X539000Y13464D02*
D03*
X539000Y26000D02*
D03*
X484000Y38500D02*
D03*
X484000Y26013D02*
D03*
X539000Y38487D02*
D03*
X538864Y50977D02*
D03*
X484000Y51036D02*
D03*
X-13499Y51536D02*
D03*
X41363Y51477D02*
D03*
X41500Y38987D02*
D03*
X-13500Y26513D02*
D03*
X-13500Y39000D02*
D03*
X41500Y26500D02*
D03*
X41500Y13964D02*
D03*
X-13500Y13988D02*
D03*
X868000Y18000D02*
D03*
X863227Y47550D02*
D03*
X764500Y15000D02*
D03*
X802374Y13626D02*
D03*
X897000Y11000D02*
D03*
X888000Y16500D02*
D03*
X822276Y47276D02*
D03*
X883000Y43000D02*
D03*
D27*
X779000Y60500D02*
D03*
D28*
X860000Y59500D02*
D03*
D29*
X870000D02*
D03*
X880000D02*
D03*
X890000D02*
D03*
X900000D02*
D03*
D30*
X870000Y11000D02*
D03*
X854000Y45500D02*
D03*
X850000Y28500D02*
D03*
X909500Y52500D02*
D03*
X811500Y17000D02*
D03*
X810000Y34500D02*
D03*
X850000Y40000D02*
D03*
X808500Y25000D02*
D03*
X839000Y38000D02*
D03*
X842500Y32500D02*
D03*
X832500Y27500D02*
D03*
X792500Y40000D02*
D03*
X803500Y47500D02*
D03*
X804500Y34000D02*
D03*
X793000Y17500D02*
D03*
X790000Y26500D02*
D03*
X789000Y30500D02*
D03*
X787000Y34500D02*
D03*
X793500Y13000D02*
D03*
X763000Y44000D02*
D03*
X758500Y41000D02*
D03*
X758000Y28000D02*
D03*
X749000Y48000D02*
D03*
X778000Y2500D02*
D03*
X774000Y7500D02*
D03*
D31*
X770500Y30500D02*
D03*
X871484D02*
D03*
D32*
X820992D02*
D03*
D33*
X910217Y44327D02*
D03*
Y8500D02*
D03*
X892500Y44327D02*
D03*
Y8500D02*
D03*
M02*
