G04 Layer_Color=32896*
%FSLAX25Y25*%
%MOIN*%
G70*
G01*
G75*
%ADD23C,0.02000*%
%ADD24C,0.01000*%
D23*
X61000Y0D02*
Y65000D01*
X161000Y-500D02*
Y64500D01*
X261019Y0D02*
Y65000D01*
X361000Y0D02*
Y65000D01*
X461000Y0D02*
Y65000D01*
X661000Y0D02*
Y65000D01*
X561000Y0D02*
Y65000D01*
X889350Y14602D02*
Y38323D01*
X913366D01*
X913268Y38224D02*
X913366Y38323D01*
X913268Y14602D02*
Y38224D01*
X889350Y14602D02*
X913268D01*
D24*
X55500Y5000D02*
X53501D01*
X54500D01*
Y10998D01*
X55500Y9998D01*
X49502Y11998D02*
Y9998D01*
X50502Y8999D01*
X45503Y11998D02*
Y9998D01*
X46503Y8999D01*
X151501Y5000D02*
X155500D01*
X151501Y8999D01*
Y9998D01*
X152501Y10998D01*
X154500D01*
X155500Y9998D01*
X148502Y11998D02*
Y9998D01*
X149502Y8999D01*
X144503Y11998D02*
Y9998D01*
X145503Y8999D01*
X255500Y9998D02*
X254500Y10998D01*
X252501D01*
X251501Y9998D01*
Y8999D01*
X252501Y7999D01*
X253501D01*
X252501D01*
X251501Y6999D01*
Y6000D01*
X252501Y5000D01*
X254500D01*
X255500Y6000D01*
X248502Y11998D02*
Y9998D01*
X249502Y8999D01*
X244503Y11998D02*
Y9998D01*
X245503Y8999D01*
X352501Y5000D02*
Y10998D01*
X355500Y7999D01*
X351501D01*
X348502Y11998D02*
Y9998D01*
X349502Y8999D01*
X344503Y11998D02*
Y9998D01*
X345503Y8999D01*
X451501Y10998D02*
X455500D01*
Y7999D01*
X453501Y8999D01*
X452501D01*
X451501Y7999D01*
Y6000D01*
X452501Y5000D01*
X454500D01*
X455500Y6000D01*
X448502Y11998D02*
Y9998D01*
X449502Y8999D01*
X444503Y11998D02*
Y9998D01*
X445503Y8999D01*
X551501Y10998D02*
X553501Y9998D01*
X555500Y7999D01*
Y6000D01*
X554500Y5000D01*
X552501D01*
X551501Y6000D01*
Y6999D01*
X552501Y7999D01*
X555500D01*
X548502Y11998D02*
Y9998D01*
X549502Y8999D01*
X544503Y11998D02*
Y9998D01*
X545503Y8999D01*
X655500Y10998D02*
X651501D01*
Y9998D01*
X655500Y6000D01*
Y5000D01*
X648502Y11998D02*
Y9998D01*
X649502Y8999D01*
X644503Y11998D02*
Y9998D01*
X645503Y8999D01*
X909339Y56898D02*
X910338Y57898D01*
X912338D01*
X913338Y56898D01*
Y55899D01*
X912338Y54899D01*
X910338D01*
X909339Y53899D01*
Y52900D01*
X910338Y51900D01*
X912338D01*
X913338Y52900D01*
X907339Y57898D02*
Y51900D01*
X905340Y53899D01*
X903341Y51900D01*
Y57898D01*
X901341Y51900D02*
X899342D01*
X900342D01*
Y57898D01*
X901341Y56898D01*
X878339Y26899D02*
X879338Y27898D01*
X881338D01*
X882337Y26899D01*
Y22900D01*
X881338Y21900D01*
X879338D01*
X878339Y22900D01*
X872341Y21900D02*
X876340D01*
X872341Y25899D01*
Y26899D01*
X873340Y27898D01*
X875340D01*
X876340Y26899D01*
X779000Y5998D02*
Y0D01*
X776001D01*
X775001Y1000D01*
Y1999D01*
X776001Y2999D01*
X779000D01*
X776001D01*
X775001Y3999D01*
Y4998D01*
X776001Y5998D01*
X779000D01*
X773002Y0D02*
Y3999D01*
X771003Y5998D01*
X769003Y3999D01*
Y0D01*
Y2999D01*
X773002D01*
X767004Y5998D02*
X763005D01*
X765004D01*
Y0D01*
X761006D02*
X759007D01*
X760006D01*
Y5998D01*
X761006Y4998D01*
M02*
